# xmcd
#
# Track frame offsets:
# 151
# 15724
# 28702
# 45789
# 62577
# 81538
# 103590
# 117910
# 129062
# 144193
# 157392
# 172661
# 183000
# 198351
# 211617
# 228090
# 241879
#
# Disc length: 3650 seconds
#
#
# Revision: 0
# Processed by: cddbd v1.5PL3 Copyright (c) Steve Scherf et al.
# Submitted via: FreeRIP 2.30 
#
DISCID=c90e4011
DTITLE=咱的台灣歌-4
DYEAR=1900
DGENRE=
TTITLE0=快樂的出帆
TTITLE1=安平追想曲
TTITLE2=流浪到台北
TTITLE3=長崎蝴蝶姑娘
TTITLE4=送君情淚
TTITLE5=媽媽歌星
TTITLE6=流浪的魔術師
TTITLE7=緣投仔
TTITLE8=內山姑娘要出嫁
TTITLE9=再見南國
TTITLE10=寶島四季謠
TTITLE11=丟丟咚
TTITLE12=離別之夜
TTITLE13=懷念夜都市
TTITLE14=南都夜曲
TTITLE15=歹歹ㄤ
TTITLE16=內山姑娘
EXTD=
EXTT0=
EXTT1=
EXTT2=
EXTT3=
EXTT4=
EXTT5=
EXTT6=
EXTT7=
EXTT8=
EXTT9=
EXTT10=
EXTT11=
EXTT12=
EXTT13=
EXTT14=
EXTT15=
EXTT16=
PLAYORDER=
